<svg width="672" height="100" viewBox="0 0 672 100" fill="none" xmlns="http://www.w3.org/2000/svg">
<mask id="mask0_6345_722" style="mask-type:luminance" maskUnits="userSpaceOnUse" x="0" y="0" width="672" height="100">
<path d="M671.972 0H0V100H671.972V0Z" fill="white"/>
</mask>
<g mask="url(#mask0_6345_722)">
<path d="M41.6431 45.7507H75.6375C76.2041 48.8669 76.9121 54.5327 76.9121 61.4732C76.9121 77.3372 66.7143 99.717 41.2182 99.717C17.2805 99.717 0 80.5953 0 55.8075C0 27.9037 21.5298 10.34 48.7253 10.34C51.6998 10.34 54.9576 10.4816 57.5072 10.9065L67.9889 44.3343L67.8474 44.476L53.3995 32.2946C44.1927 24.6459 37.9604 20.5383 31.1615 20.5383C24.3626 20.5383 18.2719 24.9292 18.2719 36.4023C18.2719 61.6148 36.2607 84.8443 54.9576 84.8443C61.0482 84.8443 64.5894 82.1529 66.9972 78.7534L41.6431 45.8924V45.7507ZM158.292 63.0313C158.292 83.7112 142.428 100 119.907 100C97.3857 100 81.5214 83.7112 81.5214 63.0313C81.5214 42.3514 97.3857 26.0623 119.907 26.0623C142.428 26.0623 158.292 42.3514 158.292 63.0313ZM136.054 81.5863C136.054 75.9211 134.496 68.2719 131.522 59.2069C125.856 41.7848 119.34 32.0113 112.4 32.0113C111.692 32.0113 110.842 32.153 109.992 32.4363C105.742 33.8527 103.76 37.9604 103.76 44.476C103.76 50.1417 105.318 57.7904 108.292 66.8557C113.958 84.2777 120.474 94.0512 127.414 94.0512C128.122 94.0512 128.972 93.9097 129.822 93.6261C134.071 92.2099 136.054 88.1024 136.054 81.5863ZM232.018 60.34C232.159 61.4732 232.159 62.6063 232.159 63.8811C232.159 79.7451 224.227 99.717 201.281 99.717C180.884 99.717 162.754 81.0197 162.754 55.0992C162.754 27.6204 184.284 10.34 208.647 10.34C211.621 10.34 214.878 10.4816 217.428 10.9065L227.91 44.3343L227.768 44.476L213.604 32.2946C204.538 24.5043 199.44 21.3881 193.066 21.3881C184.567 21.3881 180.317 28.187 180.317 37.5355C180.317 56.9406 192.499 78.4704 210.629 78.4704C224.51 78.4704 229.326 69.5465 231.876 60.1984L232.018 60.34ZM314.879 89.377C313.887 92.2099 309.213 99.5749 299.015 99.5749C285.7 99.5749 280.318 89.66 276.635 77.4787L275.36 73.3711C275.502 74.2213 275.502 74.9294 275.502 75.779C275.502 87.8187 268.42 99.717 253.972 99.717C241.224 99.717 234.85 92.3514 234.85 83.5697C234.85 72.3795 243.066 66.2892 268.42 54.6743H268.561L268.42 54.2494C266.012 47.0256 258.788 44.051 250.998 44.051C242.64 44.051 234.567 47.5921 230.318 53.2578L230.176 53.1162C232.159 41.9264 241.791 26.6289 262.187 26.6289C279.893 26.6289 290.516 36.4023 295.615 52.1247L305.389 82.1529C307.514 88.5268 309.213 90.3687 312.046 90.3687C313.462 90.3687 314.17 89.8021 314.737 89.2355L314.879 89.377ZM273.802 74.7879C273.802 71.955 273.235 68.5555 271.961 64.7309L269.128 56.2324C259.497 61.8981 257.513 69.2636 257.513 75.3545C257.513 82.7195 261.054 86.119 265.445 86.119C270.403 86.119 273.802 82.0114 273.802 74.7879ZM343.491 89.66C343.491 93.6261 345.757 96.7426 350.006 98.1588V98.4424H314.17V98.1588C318.137 95.4673 318.845 90.7931 318.845 86.8271V41.7848C318.845 34.4193 316.437 29.8867 310.488 27.9037V27.6204H343.208L342.641 46.6006H342.924L343.774 44.051C348.023 31.3031 355.248 27.3371 361.904 27.3371H362.471L369.553 49.8584L369.411 50.0001C361.763 46.459 357.372 45.7507 350.998 45.7507C345.757 45.7507 343.491 47.4505 343.491 47.4505V89.66ZM440.8 98.1588V98.4424H411.055L411.196 82.7195H411.055C410.063 86.2605 405.247 99.0083 390.8 99.0083C374.652 99.0083 366.012 85.4109 366.012 67.8474C366.012 44.7592 381.593 28.0454 407.088 28.0454C409.921 28.0454 411.055 28.187 411.055 28.187V21.6714C411.055 15.4391 408.505 11.4731 402.839 10.0567V9.77337L435.423 0H435.706V89.66C435.706 93.6261 436.84 96.7426 440.806 98.1588H440.8ZM411.055 74.6458V34.561C409.921 34.136 408.505 33.7111 405.814 33.7111C397.457 33.7111 388.817 40.6516 388.817 61.3315C388.817 79.32 394.907 86.4026 402.131 86.4026C405.389 86.4026 411.055 84.8443 411.055 74.6458ZM479.326 98.1588V98.4424H444.482V98.1588C448.448 96.7426 449.582 93.6261 449.582 89.66V21.6714C449.582 15.4391 447.032 11.4731 441.366 10.0567V9.77337L473.95 0H474.234V89.66C474.234 93.6261 475.367 96.7426 479.333 98.1588H479.326ZM548.874 63.1729C549.299 65.156 549.44 67.1387 549.44 68.98C549.44 85.5524 535.701 99.717 518.562 99.717C496.04 99.717 483.01 83.7112 483.01 62.4647C483.01 41.2182 496.465 26.6289 515.587 26.6289C528.76 26.6289 538.959 33.2862 543.208 44.7593L506.947 69.4051C512.046 75.3545 519.27 79.4621 528.194 79.4621C540.658 79.4621 548.165 71.2463 548.732 63.1729H548.874ZM498.165 45.7507C498.165 53.5411 500.998 62.1814 506.38 68.697L511.338 61.7565C514.879 56.799 517.428 51.8414 517.428 45.4675C517.428 38.5269 514.454 33.2862 508.222 33.2862C502.414 33.2862 498.165 37.5354 498.165 45.7507ZM591.939 52.408C605.678 59.3485 611.061 66.7143 611.061 76.2041C611.061 87.6773 601.57 99.717 581.882 99.717C571.401 99.717 565.31 98.0173 560.211 95.8924L550.579 66.2892L550.721 66.1477L558.369 74.0792C572.959 89.2355 581.741 94.1927 588.398 94.1927C594.206 94.1927 595.763 90.9353 595.763 88.2438C595.763 84.7028 594.63 81.7284 584.432 76.487L571.826 70.1131C560.778 64.4479 555.537 57.6488 555.537 48.5837C555.537 34.2777 567.435 27.0539 582.732 27.0539C593.072 27.0539 598.88 28.4703 598.88 28.4703L606.528 51.983L606.387 52.1247L599.021 46.034C587.123 36.1191 580.466 31.8697 575.508 31.8697C571.401 31.8697 569.134 33.8527 569.134 36.9689C569.134 40.3683 572.251 42.493 579.333 46.034L591.939 52.408ZM652.846 52.408C666.583 59.3485 671.966 66.7143 671.966 76.2041C671.966 87.6773 662.48 99.717 642.789 99.717C632.308 99.717 626.217 98.0173 621.117 95.8924L611.485 66.2892L611.628 66.1477L619.276 74.0792C633.865 89.2355 642.647 94.1927 649.303 94.1927C655.11 94.1927 656.673 90.9353 656.673 88.2438C656.673 84.7028 655.534 81.7284 645.341 76.487L632.732 70.1131C621.684 64.4479 616.443 57.6488 616.443 48.5837C616.443 34.2777 628.341 27.0539 643.637 27.0539C653.978 27.0539 659.785 28.4703 659.785 28.4703L667.432 51.983L667.29 52.1247L659.927 46.034C648.029 36.1191 641.372 31.8697 636.415 31.8697C632.308 31.8697 630.041 33.8527 630.041 36.9689C630.041 40.3683 633.157 42.493 640.239 46.034L652.846 52.408Z" fill="#1C1B18"/>
</g>
</svg>
